PathFileType	4	(X/Y/Z)	C:/Users/beibeiliu/ov580/test_trc/User1\sequence.1_training_dense_right.trc
DataRate	CameraRate	NumFrames	NumMarkers	Units	OrigDataRate	OrigDataStartFrame	OrigNumFrames
120	120	16	19	mm	120	111	294
Frame#	Time	ThumbCMC			ThumbMCP			ThumbIP			ThumbTip			IndexMCP			IndexPIP			IndexTip			MiddleMCP			MiddlePIP			MiddleTip			RingMCP			RingPIP			RingTip			PinkyMCP			PinkyPIP			PinkyTip			BackHand1			BackHand2			BackHand3	
		X0	Y0	Z0	X1	Y1	Z1	X2	Y2	Z2	X3	Y3	Z3	X4	Y4	Z4	X5	Y5	Z5	X6	Y6	Z6	X7	Y7	Z7	X8	Y8	Z8	X9	Y9	Z9	X10	Y10	Z10	X11	Y11	Z11	X12	Y12	Z12	X13	Y13	Z13	X14	Y14	Z14	X15	Y15	Z15	X16	Y16	Z16	X17	Y17	Z17	X18	Y18	Z18	
110	0.916667	182.524	63.2227	75.3506	182.365	83.8691	52.3358	191.146	99.4873	31.9815	195.621	109.18	6.09709	224.86	44.8984	4.24494	227.188	48.2565	-30.185	212.542	54.8079	-55.6361	228.18	23.3673	-4.17234	226.686	24.6117	-42.4868	206.677	31.425	-69.1608	213.764	0.739048	-4.92102	213.038	7.82745	-40.7994	193.383	15.6278	-57.322	195.098	-16.6861	3.26989	195.242	-11.1821	-22.6719	182.122	1.57271	-47.6903	197.608	-4.3526	51.7921	186.139	-5.49808	83.5721	204.946	28.7149	70.5431	
111	0.925	176.417	63.7396	74.8298	174.016	85.6389	53.2344	181.219	103.301	33.6101	183.855	113.32	9.22593	225.101	57.7717	4.37095	227.759	61.8841	-28.5843	210.879	66.8026	-54.1332	230.235	33.0961	-4.34026	231.95	39.4637	-37.2003	208.704	44.2341	-69.6993	220.211	10.3949	-5.61272	219.377	18.1542	-37.8977	196.6	24.257	-60.0207	201.601	-6.98347	5.56967	203.384	-4.27873	-22.9776	191.178	7.67038	-45.7329	205.77	7.78504	49.4423	193.376	-2.70452	80.8733	203.467	36.3698	74.4883	
112	0.933333	171.658	68.3741	75.2708	168.251	87.9998	50.6767	170.782	106.286	32.2965	171.591	119.349	8.14204	220.519	73.8995	6.12786	224.245	75.8613	-28.0699	209.201	76.8288	-50.9545	231.862	51.5413	-6.93104	233.027	52.4954	-36.6786	211.186	59.2808	-67.3352	226.25	27.7924	-5.97364	224.446	32.278	-39.4379	200.393	34.6289	-61.2787	209.439	1.2908	3.42866	211.915	4.57742	-26.1556	196.001	18.8633	-46.9515	211.596	14.2156	48.1432	199.431	6.06634	79.4208	201.926	44.7026	70.6659	
113	0.941667	162.069	73.593	77.2384	151.799	94.1976	54.7031	155.985	113.371	31.0548	151.499	123.672	10.6834	212.823	89.727	6.41902	215.128	98.981	-22.65	199.483	93.4812	-54.8089	228.319	66.9802	-3.99462	228.663	74.5711	-40.5022	210.47	75.6672	-64.7765	227.755	47.9796	-5.68185	229.079	49.0148	-39.0881	204.752	51.2312	-62.2284	219.769	18.5916	-0.000877606	219.884	26.6243	-26.4048	205.196	32.2233	-48.1014	213.685	30.8384	46.2179	201.803	18.4809	79.7428	197.626	56.384	71.8447	
114	0.95	157.186	73.9411	73.1269	145.41	91.3668	53.3634	145.185	108.449	32.676	142.743	123.81	9.23423	204.401	101.081	5.87187	207.137	108.485	-25.426	193.982	102.742	-53.9149	226.605	80.687	-5.06902	224.614	90.7653	-35.0361	206.124	87.7984	-64.8375	228.4	61.7643	-4.79384	229.53	65.2234	-39.9265	211.835	60.9331	-60.2536	224.683	28.4049	1.78875	225.445	36.9847	-27.2541	209.76	41.8316	-48.5913	214.543	37.0223	49.3162	206.9	29.5324	76.0228	193.136	63.0829	71.043	
115	0.958333	150.593	70.4617	74.2722	137.416	90.8251	52.6768	135.031	109.177	33.1279	133.011	119.719	9.37148	199.158	103.385	6.36256	200.639	114.784	-26.0162	185.011	110.518	-55.2307	220.323	90.824	-3.66346	220.782	96.9066	-40.4524	199.446	93.4117	-69.1235	227.396	64.8321	-2.92942	228.822	75.9074	-35.9844	211.875	67.7894	-61.0284	225.216	39.8284	0.956528	225.875	47.6086	-25.8854	210.631	52.8172	-47.6859	212.993	43.9038	48.3656	205.413	32.0829	76.2925	194.212	66.4785	68.3325	
116	0.966667	150.727	68.5811	68.9395	132.803	87.9915	49.0718	126.642	108.022	29.9027	122.05	116.267	9.83874	191.571	108.123	4.64804	191.764	120.724	-28.4225	180.389	108.928	-57.6953	213.622	99.3181	-6.02651	214.649	102.621	-41.359	198.262	94.1197	-69.9541	224.737	76.707	-6.7548	227.252	82.4309	-37.628	210.867	74.6831	-60.8477	225.597	49.2039	0.456065	229.529	54.2509	-23.15	210.214	59.0983	-48.8418	212.841	53.8953	44.2355	206.191	38.0936	78.2511	187.474	70.9403	69.6446	
117	0.975	147.125	65.9877	66.2081	125.77	83.6113	49.1606	122.379	99.7233	26.7295	111.86	113.184	5.16735	181.415	115.03	0.934933	182.003	123.29	-28.4037	173.063	112.226	-58.3437	206.901	103.916	-7.079	206.816	111.63	-36.4332	192.929	99.7837	-70.9492	222.333	81.9751	-7.35388	221.703	89.673	-38.1677	204.529	80.7368	-65.3594	228.194	54.8105	-3.16919	229.283	61.6276	-24.9379	210.07	63.4682	-52.4586	210.51	59.8367	43.1452	207.903	39.6966	73.479	184.366	74.4825	62.4011	
118	0.983333	142.286	63.2273	67.3386	123.781	79.2048	44.1012	112.529	93.2478	26.5428	104.669	104.412	3.70956	172.638	112.639	1.89069	173.128	123.799	-28.7997	163.978	113.314	-59.294	198.923	105.706	-6.02661	199.565	115.686	-38.2213	190.111	101.812	-72.1841	219.186	88.9681	-9.95863	217.622	94.9581	-42.6444	201.834	86.6558	-65.6004	225.238	58.8657	0.00760236	228.756	66.2427	-30.7236	212.646	68.2088	-51.7048	210.446	62.1522	44.0727	208.17	44.5994	71.6694	182.297	76.0081	61.4345	
119	0.991667	140.299	59.7474	63.384	118.54	72.1422	43.5544	108.838	85.0703	24.3661	96.9774	93.3913	3.20568	164.234	110.992	0.554093	166.025	120.882	-32.5632	157.995	110.436	-60.4506	193.253	110.086	-10.1583	191.681	117.407	-41.993	185.439	103.546	-72.1628	210.431	92.3512	-7.467	212.351	99.7943	-42.8817	199.225	89.9454	-64.0971	225.623	62.2456	0.0279287	225.498	73.5613	-29.4599	211.138	72.3016	-53.6262	205.405	64.4661	42.5218	205.416	52.2305	69.722	174.849	75.1467	59.8524	
120	1	137.348	55.4036	63.3852	114.12	67.0826	41.6647	103.776	77.4978	21.3712	90.6321	84.0082	2.64163	159.161	109.992	-6.03254	155.436	119.131	-33.9632	151.986	107.314	-61.9904	183.853	110.488	-12.6953	185.634	116.868	-41.8631	177.656	104.473	-76.0449	206.104	94.0053	-9.19914	207.969	103.228	-40.6764	197.775	90.7267	-66.8399	223.221	66.0605	-1.63787	225.599	77.198	-26.7275	210.363	74.9448	-55.5722	202.153	69.521	37.8293	203.343	53.0899	71.7934	173.108	75.3754	58.9773	
121	1.00833	136.555	51.9972	61.2797	113.778	54.7587	43.2908	100.167	69.8521	19.0305	85.9718	73.6584	0.715983	152.982	104.189	-5.84158	145.516	114.353	-38.2043	143.046	101.338	-67.1786	181.834	105.557	-12.6651	177.477	116.177	-44.3087	171.948	100.387	-80.6974	204.003	95.0396	-11.0476	201.934	103.629	-44.9386	189.419	91.5575	-70.3135	220.616	71.0907	-4.55508	220.579	81.6466	-28.1497	209.695	77.1867	-57.6676	201.391	70.4946	36.8171	205.261	54.5919	66.4326	173.03	72.751	54.2864	
122	1.01667	134.699	48.5033	59.8335	110.693	48.9806	41.072	97.8241	58.9264	18.5814	86.4623	63.6959	-3.34845	143.404	101.224	-10.2899	138.499	108.423	-41.5306	135.589	96.8074	-65.5749	173.345	104.386	-14.5168	172.02	112.244	-47.2705	164.345	98.9351	-82.2583	198.182	97.2669	-14.2344	194.836	105.889	-46.1761	188.139	90.901	-73.3782	214.443	76.236	-7.73358	216.968	84.1825	-28.7716	208.864	76.4342	-60.5154	200.703	73.2934	34.3145	205.309	55.8556	67.5645	165.824	71.5418	57.4133	
123	1.025	135.037	42.2091	59.6972	108.579	43.6088	37.708	97.6915	48.7562	17.8148	79.242	49.9365	-4.63129	137.952	95.0136	-12.6017	132.469	101.62	-42.1312	132.727	85.275	-73.9989	169.009	101.86	-19.9019	163.704	108.069	-53.2998	159.044	94.0667	-84.1729	191.812	98.3476	-17.4969	188.166	104.823	-48.426	184.941	89.9812	-73.8296	215.461	75.2516	-6.86457	216.17	84.1237	-36.3111	207.187	79.4307	-62.9445	198.661	72.5597	32.7837	202.099	59.6197	65.5458	163.859	68.4356	53.343	
124	1.03333	137.076	39.2572	54.6108	111.921	36.6109	37.3328	95.158	40.7654	13.779	84.2803	40.2818	-8.80597	134.366	89.4565	-19.113	129.709	92.5222	-48.3693	128.195	77.1224	-75.2107	160.967	99.3345	-26.0648	161.934	103.146	-55.1145	159.073	86.5025	-89.6984	190.549	94.3605	-20.5881	188.001	102.529	-51.5341	181.116	86.8685	-78.8042	214.598	77.0809	-12.6708	214.149	83.2338	-38.6431	204.399	78.091	-63.3075	193.475	71.3657	28.5562	196.9	60.0703	63.2333	160.057	66.7903	49.5298	
125	1.04167	137.191	35.3226	54.2767	110.174	30.8153	33.7228	96.9451	32.2378	12.213	84.1062	31.4377	-12.2391	133.921	80.6614	-20.3019	127.256	84.1544	-50.346	129.365	66.3163	-80.2867	163.648	93.4576	-27.7932	155.601	97.0984	-62.6909	159.536	78.2848	-94.6052	185.1	91.6748	-23.2428	186.647	98.5633	-57.0087	181.594	85.1018	-79.763	209.155	73.0171	-12.4951	211.213	82.9746	-35.3288	204.506	77.6328	-63.6171	195.121	73.0325	27.1377	198.755	60.7605	58.7047	159.667	64.3767	45.3664	
